<svg width="57" height="285" viewBox="0 0 57 285" fill="none" xmlns="http://www.w3.org/2000/svg">
<path d="M26.504 5.85411C27.1027 4.01149 29.7096 4.01148 30.3083 5.8541L34.3347 18.2462C34.6024 19.0702 35.3703 19.6282 36.2368 19.6282H49.2666C51.2041 19.6282 52.0096 22.1074 50.4422 23.2462L39.9008 30.9049C39.1999 31.4142 38.9066 32.317 39.1743 33.141L43.2007 45.5331C43.7994 47.3757 41.6905 48.908 40.1231 47.7692L29.5817 40.1104C28.8807 39.6011 27.9315 39.6011 27.2306 40.1104L16.6892 47.7692C15.1218 48.908 13.0128 47.3757 13.6115 45.5331L17.638 33.141C17.9057 32.317 17.6124 31.4142 16.9114 30.9049L6.3701 23.2462C4.80267 22.1074 5.60821 19.6282 7.54566 19.6282L20.5755 19.6282C21.4419 19.6282 22.2098 19.0702 22.4776 18.2462L26.504 5.85411Z" fill="#FFE710"/>
<path d="M26.504 62.8541C27.1027 61.0115 29.7096 61.0115 30.3083 62.8541L34.3347 75.2462C34.6024 76.0702 35.3703 76.6282 36.2368 76.6282H49.2666C51.2041 76.6282 52.0096 79.1074 50.4422 80.2462L39.9008 87.9049C39.1999 88.4142 38.9066 89.317 39.1743 90.141L43.2007 102.533C43.7994 104.376 41.6905 105.908 40.1231 104.769L29.5817 97.1104C28.8807 96.6011 27.9315 96.6011 27.2306 97.1104L16.6892 104.769C15.1218 105.908 13.0128 104.376 13.6115 102.533L17.638 90.141C17.9057 89.317 17.6124 88.4142 16.9114 87.9049L6.3701 80.2462C4.80267 79.1074 5.60821 76.6282 7.54566 76.6282H20.5755C21.4419 76.6282 22.2098 76.0702 22.4776 75.2462L26.504 62.8541Z" fill="#FFE710"/>
<path d="M26.504 119.854C27.1027 118.011 29.7096 118.011 30.3083 119.854L34.3347 132.246C34.6024 133.07 35.3703 133.628 36.2368 133.628H49.2666C51.2041 133.628 52.0096 136.107 50.4422 137.246L39.9008 144.905C39.1999 145.414 38.9066 146.317 39.1743 147.141L43.2007 159.533C43.7994 161.376 41.6905 162.908 40.1231 161.769L29.5817 154.11C28.8807 153.601 27.9315 153.601 27.2306 154.11L16.6892 161.769C15.1218 162.908 13.0128 161.376 13.6115 159.533L17.638 147.141C17.9057 146.317 17.6124 145.414 16.9114 144.905L6.3701 137.246C4.80267 136.107 5.60821 133.628 7.54566 133.628H20.5755C21.4419 133.628 22.2098 133.07 22.4776 132.246L26.504 119.854Z" fill="#FFE710"/>
<path d="M26.504 176.854C27.1027 175.011 29.7096 175.011 30.3083 176.854L34.3347 189.246C34.6024 190.07 35.3703 190.628 36.2368 190.628H49.2666C51.2041 190.628 52.0096 193.107 50.4422 194.246L39.9008 201.905C39.1999 202.414 38.9066 203.317 39.1743 204.141L43.2007 216.533C43.7994 218.376 41.6905 219.908 40.1231 218.769L29.5817 211.11C28.8807 210.601 27.9315 210.601 27.2306 211.11L16.6892 218.769C15.1218 219.908 13.0128 218.376 13.6115 216.533L17.638 204.141C17.9057 203.317 17.6124 202.414 16.9114 201.905L6.3701 194.246C4.80267 193.107 5.60821 190.628 7.54566 190.628H20.5755C21.4419 190.628 22.2098 190.07 22.4776 189.246L26.504 176.854Z" fill="#FFE710"/>
<path d="M26.504 233.854C27.1027 232.011 29.7096 232.011 30.3083 233.854L34.3347 246.246C34.6024 247.07 35.3703 247.628 36.2368 247.628H49.2666C51.2041 247.628 52.0096 250.107 50.4422 251.246L39.9008 258.905C39.1999 259.414 38.9066 260.317 39.1743 261.141L43.2007 273.533C43.7994 275.376 41.6905 276.908 40.1231 275.769L29.5817 268.11C28.8807 267.601 27.9315 267.601 27.2306 268.11L16.6892 275.769C15.1218 276.908 13.0128 275.376 13.6115 273.533L17.638 261.141C17.9057 260.317 17.6124 259.414 16.9114 258.905L6.3701 251.246C4.80267 250.107 5.60821 247.628 7.54566 247.628H20.5755C21.4419 247.628 22.2098 247.07 22.4776 246.246L26.504 233.854Z" fill="#FFE710"/>
</svg>
